<?xml version="1.0" encoding="UTF-8"?>
<svg id="Calque_1" data-name="Calque 1" xmlns="http://www.w3.org/2000/svg" version="1.1" viewBox="0 0 787.7 621.4">
  <defs>
    <style>
      .cls-1, .cls-2 {
        fill: #000;
        stroke-width: 0px;
      }

      .cls-2 {
        fill-rule: evenodd;
      }
    </style>
  </defs>
  <path class="cls-1" d="M93.4,212.4h159.5s4-1.1,13.1,6.3,76,57.7,76,57.7l-10.9-100s-64.6-37.7-71.4-39.4-244.1-6.3-244.1-6.3c0,0-4.6,2.3,0,6.9s77.7,74.9,77.7,74.9Z"/>
  <path class="cls-1" d="M691.4,212.4h-159.5s-4-1.1-13.1,6.3-76,57.7-76,57.7l10.9-100s64.6-37.7,71.4-39.4,244.1-6.3,244.1-6.3c0,0,4.6,2.3,0,6.9s-77.7,74.9-77.7,74.9Z"/>
  <path class="cls-1" d="M435.4,189c-8.2,2.6-27.9,8.8-32,11.4-2.9,1.8-5.1,4-5.1,13.1s-1.3,223.5-3.5,225.2c-.7.6-1.5.9-2.3,1.1-.7-.2-1.5-.5-2.3-1.1-2.2-1.7-3.5-216-3.5-225.2s-2.3-11.3-5.1-13.1c-4.1-2.6-23.8-8.8-32-11.4-8.2-2.6-7.4,5.6-7.4,5.6,0,0,44.7,424.2,50.3,425.3h0c5.6-1.1,50.3-425.3,50.3-425.3,0,0,.8-8.2-7.4-5.6Z"/>
  <path class="cls-2" d="M719.3,0l6.9,14.8-59.9,53.3-13.8,12.3h13.3s26.9,0,26.9,0c18.7-18.3,37.5-36.4,56.2-54.6-3.7,18.3-7.5,36.4-11.4,54.6h41.2S787.7,0,787.7,0c-20.5,0-47.9,0-68.4,0Z"/>
  <path class="cls-2" d="M733.4,99.2h43.1s1.4-12.2,1.4-12.2h-41.9c-.9,4.1-1.8,8.2-2.6,12.2Z"/>
  <polygon class="cls-2" points="600.1 66.7 591.5 80.5 599.5 80.5 632.9 80.4 668.3 23.2 682.5 .1 669.2 .1 625.2 .2 632.1 14.9 600.1 66.7"/>
  <path class="cls-2" d="M645,87.1l-13.7,12.2h33.7s8.5,0,8.5,0c4.1-4.1,8.3-8.1,12.4-12.2h-20.3s-20.5,0-20.5,0Z"/>
  <path class="cls-2" d="M601.5,33.7c1.6-1.9,3.1-3.9,4.4-6,3.9-6.3,5.2-11.7,3.7-16-1.1-3.3-3.4-5.8-6.9-7.6-1.2-.6-2.4-1-3.9-1.4-5.7-1.6-15-2.4-27.7-2.4h-28s-29.2,0-29.2,0h-11.5s-16,0-16,0l6.9,14.8-40.5,65.5h41.4s13.2-21.4,13.2-21.4c5,0,10,0,14.9,0l1.8,21.3h15.6s31.1,0,31.1,0c-.8-9.1-1.6-18.2-2.4-27.3,1.7-.5,3.3-1,4.8-1.5,7-2.5,13.4-5.7,19-9.7,3.5-2.5,6.5-5.2,9.1-8.3ZM562,31.5c-1.9,2.6-5.6,5.3-9.7,6.6-2.6.8-5.6,1.3-8.5,1.6-.8.1-1.6.2-2.3.3-2.8.3-5.6.5-8.5.5-4.6,0-9.4,0-14,0,4.1-6.8,8.4-13.4,12.5-20.2,4.4,0,7.6,0,10.8,0,3,0,5.9,0,9.9,0,7.6.2,11,1.5,12,3.8.8,1.8,0,4.5-2.2,7.4Z"/>
  <polygon class="cls-2" points="587.4 87.2 579.9 99.4 598.7 99.3 621.2 99.3 628.7 87.1 599.2 87.2 587.4 87.2"/>
  <path class="cls-2" d="M539.5,87.2h-14.7s1,12.2,1,12.2h13.1s33.5,0,33.5,0c-.3-4.1-.6-8.1-1-12.2h-32Z"/>
  <polygon class="cls-2" points="441.4 99.1 441.2 99.5 441.4 99.5 482.6 99.5 490.1 87.3 448.7 87.3 441.4 99.1"/>
  <path class="cls-2" d="M445.8.4h-.2s-68.1,0-68.1,0l6.9,14.7-67.5,60.1h-30.7s-14.5,0-14.5,0l15.5-25.1,19-30.7h-17.7s-23.6,0-23.6,0l-49.6,80.2h0c0,0,0,0,0,0h69.7c0,0,46.4-.1,46.4-.1,25-24.7,50.3-49,75.5-73.5-5,24.6-10.1,49-15.5,73.5h43.2s10.8-96.1,10.8-96.1l.3-3.1Z"/>
  <polygon class="cls-2" points="288.8 12.7 310.4 12.7 317.9 .5 289.3 .6 260.8 .6 266.6 12.8 288.8 12.7"/>
  <path class="cls-2" d="M218.8,19.5h-64.1c0,0-50.8,45.3-50.8,45.3l-39.4,35.1h37.9s4.2,0,4.2,0c25-24.7,50.3-49,75.5-73.5-5,24.6-10.1,49-15.5,73.5h43.2s9-79.7,9-79.7v-.6Z"/>
  <path class="cls-2" d="M219.1,12.8h.5s1.4-12.2,1.4-12.2h-1.4c-20.3,0-46.9,0-66.9,0l5.7,12.2h60.7Z"/>
  <polygon class="cls-2" points="137.1 12.9 144.6 .7 106.7 .8 19.3 .9 11.8 13 106.2 12.9 137.1 12.9"/>
  <polygon class="cls-2" points="105.6 25.2 129.5 25.2 132.9 19.6 105.9 19.6 7.6 19.7 4.1 25.4 46.2 25.3 0 100 41.2 100 87.4 25.3 105.6 25.2"/>
</svg>